# xmcd
#
# Track frame offsets:
#	150
#	11588
#	23195
#	32551
#	42788
#	54544
#	67567
#	79460
#	90928
#	101553
#
# Disc length: 1480 seconds
#
# Revision: 1
# Processed by: cddbd v1.5.2PL0 Copyright (c) Steve Scherf et al.
# Submitted via: audiograbber 1.83.01
#
DISCID=6a05c60a
DTITLE=George Jones - I'll Share My World With You
DYEAR=1969
DGENRE=Country
TTITLE0=I'll Share My World With You
TTITLE1=I Don't Have Sense Enough
TTITLE2=Do What You Think's Best
TTITLE3=Heartaches And Hangovers
TTITLE4=Milwaukee, Here I Come (with Brenda Carter)
TTITLE5=When The Grass Grows Over Me
TTITLE6=You've Become My Everything
TTITLE7=When The Wife Runs Off
TTITLE8=Our Happy Home
TTITLE9=The Race Is On
EXTD=
EXTT0=
EXTT1=
EXTT2=
EXTT3=
EXTT4=
EXTT5=
EXTT6=
EXTT7=
EXTT8=
EXTT9=
PLAYORDER=
